<svg width="120" height="82" viewBox="0 0 120 82" fill="none" xmlns="http://www.w3.org/2000/svg">
<path d="M109.922 66.0781V30.9219H90V66.0781H109.922ZM115.078 21.0781C116.484 21.0781 117.656 21.5469 118.594 22.4844C119.531 23.4219 120 24.5938 120 26V75.9219C120 77.3281 119.531 78.5781 118.594 79.6719C117.656 80.6094 116.484 81.0781 115.078 81.0781H85.0781C83.6719 81.0781 82.4219 80.6094 81.3281 79.6719C80.3906 78.5781 79.9219 77.3281 79.9219 75.9219V26C79.9219 24.5938 80.3906 23.4219 81.3281 22.4844C82.4219 21.5469 83.6719 21.0781 85.0781 21.0781H115.078ZM19.9219 11V66.0781H70.0781V81.0781H0V66.0781H10.0781V11C10.0781 8.34375 11.0156 6 12.8906 3.96875C14.9219 1.9375 17.2656 0.921875 19.9219 0.921875H109.922V11H19.9219Z" fill="white"/>
</svg>
