<svg width="65" height="112" viewBox="0 0 65 112" fill="none" xmlns="http://www.w3.org/2000/svg">
<path d="M54.9219 86V15.9219H9.92188V86H54.9219ZM27.0312 103.812C28.5938 105.219 30.3906 105.922 32.4219 105.922C34.4531 105.922 36.1719 105.219 37.5781 103.812C39.1406 102.25 39.9219 100.453 39.9219 98.4219C39.9219 96.3906 39.1406 94.6719 37.5781 93.2656C36.1719 91.7031 34.4531 90.9219 32.4219 90.9219C30.3906 90.9219 28.5938 91.7031 27.0312 93.2656C25.625 94.6719 24.9219 96.3906 24.9219 98.4219C24.9219 100.453 25.625 102.25 27.0312 103.812ZM52.5781 0.921875C56.0156 0.921875 58.9062 2.17187 61.25 4.67188C63.75 7.17188 65 10.1406 65 13.5781V98.4219C65 101.859 63.75 104.828 61.25 107.328C58.9062 109.828 56.0156 111.078 52.5781 111.078H12.5C9.0625 111.078 6.09375 109.828 3.59375 107.328C1.25 104.828 0.078125 101.859 0.078125 98.4219V13.5781C0.078125 10.1406 1.25 7.17188 3.59375 4.67188C6.09375 2.17187 9.0625 0.921875 12.5 0.921875H52.5781Z" fill="white"/>
</svg>
