<svg width="95" height="90" viewBox="0 0 95 90" fill="none" xmlns="http://www.w3.org/2000/svg">
<path d="M93.5938 8.20312C94.5312 9.14062 95 10.3125 95 11.7188C95 13.125 94.5312 14.2969 93.5938 15.2344L48.8281 60L35 46.1719L79.7656 1.40625C80.7031 0.46875 81.875 0 83.2812 0C84.6875 0 85.8594 0.46875 86.7969 1.40625L93.5938 8.20312ZM14.375 59.5312C17.3438 56.5625 20.8594 55.0781 24.9219 55.0781C28.9844 55.0781 32.5 56.5625 35.4688 59.5312C38.4375 62.5 39.9219 66.0156 39.9219 70.0781C39.9219 75.5469 37.9688 80.2344 34.0625 84.1406C30.1562 88.0469 25.4688 90 20 90C11.875 90 5.23438 86.6406 0.078125 79.9219C2.42188 79.9219 4.60938 79.0625 6.64062 77.3438C8.82812 75.4688 9.92188 73.0469 9.92188 70.0781C9.92188 66.0156 11.4062 62.5 14.375 59.5312Z" fill="white"/>
</svg>
