<svg width="24" height="24" viewBox="0 0 24 24" fill="none" xmlns="http://www.w3.org/2000/svg">
<path fill-rule="evenodd" clip-rule="evenodd" d="M12 0C5.37 0 0 5.36573 0 11.9905C0 17.2962 3.435 21.7777 8.205 23.3664C8.805 23.4713 9.03 23.1116 9.03 22.7969C9.03 22.5121 9.015 21.5678 9.015 20.5636C6 21.1182 5.22 19.8292 4.98 19.1548C4.845 18.81 4.26 17.7459 3.75 17.4611C3.33 17.2363 2.73 16.6817 3.735 16.6667C4.68 16.6517 5.355 17.536 5.58 17.8958C6.66 19.7093 8.385 19.1997 9.075 18.885C9.18 18.1056 9.495 17.581 9.84 17.2812C7.17 16.9815 4.38 15.9473 4.38 11.361C4.38 10.057 4.845 8.97786 5.61 8.13852C5.49 7.83876 5.07 6.60974 5.73 4.96105C5.73 4.96105 6.735 4.6463 9.03 6.19007C9.99 5.92029 11.01 5.7854 12.03 5.7854C13.05 5.7854 14.07 5.92029 15.03 6.19007C17.325 4.63131 18.33 4.96105 18.33 4.96105C18.99 6.60974 18.57 7.83876 18.45 8.13852C19.215 8.97786 19.68 10.042 19.68 11.361C19.68 15.9623 16.875 16.9815 14.205 17.2812C14.64 17.6559 15.015 18.3754 15.015 19.4995C15.015 21.1032 15 22.3922 15 22.7969C15 23.1116 15.225 23.4863 15.825 23.3664C20.565 21.7777 24 17.2812 24 11.9905C24 5.36573 18.63 0 12 0Z" fill="#E3E3E3"/>
</svg>
